<svg width="221" height="233" viewBox="0 0 221 233" fill="none" xmlns="http://www.w3.org/2000/svg">
<g clip-path="url(#clip0_7_19)">
<path fill-rule="evenodd" clip-rule="evenodd" d="M68.3106 53.0735C77.4981 54.1922 87.3775 52.1064 98.0258 46.4369C96.9687 54.268 96.8918 62.7818 97.8528 72.0351C92.6824 71.6179 87.5121 70.575 82.3417 69.0202C42.5548 56.6951 14.2618 81.4969 7.84213 115.533H2.71019H2.49876C1.01877 115.666 -0.096036 116.955 6.76461e-05 118.415L3.57512 163.639C3.61357 165.08 4.82447 166.236 6.30447 166.236H14.1465C15.4728 169.213 16.972 172.171 18.6442 175.091C28.1969 191.645 39.7678 208.691 57.7199 224.183C74.7879 236.242 89.8186 234.593 103.715 227.122C114.767 232.298 126.453 234.346 138.985 229.701C140.85 229.018 142.714 228.108 144.578 227.046H218.271C219.059 227.046 219.847 226.705 220.385 226.06C221.327 224.922 221.154 223.235 220.001 222.287L195.571 202.718L219.808 184.705C220.539 184.231 221.019 183.396 221.019 182.467C221.019 180.988 219.808 179.775 218.29 179.775H184.788L185.134 179.13C187.345 174.94 189.401 170.616 191.227 166.217H194.418C195.667 166.217 196.801 165.364 197.07 164.094L207.123 118.889C207.18 118.662 207.219 118.434 207.219 118.207C207.219 116.728 206.008 115.514 204.489 115.514H199.357C196.782 98.5244 187.441 83.2603 167.893 72.9452C156.111 66.7068 141.388 64.8865 122.724 69.0202C118.284 70.5181 113.864 71.4662 109.424 71.9213C109.424 71.8265 109.404 71.7317 109.404 71.6558C107.848 57.5294 108.943 45.4509 112.364 35.1927C115.709 25.143 121.341 16.762 128.933 9.84104C131.278 7.71734 131.412 4.1336 129.279 1.82029C127.126 -0.493025 123.493 -0.625756 121.148 1.47898C112.115 9.70831 105.426 19.6821 101.428 31.6658C100.909 33.2207 100.428 34.8135 100.006 36.4441C88.4731 16.2501 68.9256 5.80222 36.7501 10.6564L24.1413 11.9458C33.348 30.9074 44.7459 50.2292 68.3106 53.0735ZM181.079 160.87V150.441C181.079 148.943 182.309 147.749 183.808 147.749C185.307 147.749 186.537 148.962 186.537 150.441V160.87H192.207L201.107 120.918H5.65096L8.80316 160.87H16.7221V145.056C16.7221 143.577 17.933 142.364 19.4514 142.364C20.9507 142.364 22.1808 143.558 22.1808 145.056V160.87H35.1163V150.441C35.1163 148.943 36.3465 147.749 37.8457 147.749C39.3449 147.749 40.575 148.962 40.575 150.441V160.87H52.6456V145.056C52.6456 143.577 53.8566 142.364 55.375 142.364C56.8742 142.364 58.1043 143.558 58.1043 145.056V160.87H71.0399V150.441C71.0399 148.943 72.27 147.749 73.7692 147.749C75.2877 147.749 76.4986 148.962 76.4986 150.441V160.87H90.7027V145.056C90.7027 143.577 91.9136 142.364 93.432 142.364C94.9313 142.364 96.1614 143.558 96.1614 145.056V160.87H109.097V150.441C109.097 148.943 110.327 147.749 111.826 147.749C113.345 147.749 114.556 148.962 114.556 150.441V160.87H126.626V145.056C126.626 143.577 127.837 142.364 129.356 142.364C130.855 142.364 132.085 143.558 132.085 145.056V160.87H145.02V150.441C145.02 148.943 146.251 147.749 147.75 147.749C149.268 147.749 150.479 148.962 150.479 150.441V160.87H162.684V145.056C162.684 143.577 163.895 142.364 165.414 142.364C166.913 142.364 168.143 143.558 168.143 145.056V160.87H181.079ZM47.3215 166.236H37.5574C40.0176 171.489 43.0737 176.362 46.5911 180.931C51.6846 187.53 57.7968 193.446 64.5817 198.926C66.4461 200.424 69.1947 200.14 70.7324 198.3C72.2508 196.461 71.9625 193.749 70.0981 192.233C63.8321 187.189 58.2004 181.728 53.5298 175.698C51.2233 172.702 49.1283 169.555 47.3215 166.236ZM210.16 185.179H181.751C174.659 197.238 163.895 212.142 152.247 221.699H210.621L189.574 204.842C189.363 204.69 189.151 204.501 188.978 204.273C188.075 203.098 188.306 201.41 189.516 200.519L210.16 185.179Z" fill="black"/>
</g>
<defs>
<clipPath id="clip0_7_19">
<rect width="221" height="233" fill="white"/>
</clipPath>
</defs>
</svg>
