<svg width="441" height="355" viewBox="0 0 441 355" fill="none" xmlns="http://www.w3.org/2000/svg">
<g clip-path="url(#clip0_7_8)">
<path d="M419.036 178.346L424.527 175.109C425.604 174.447 426.86 174.337 428.008 174.631C429.121 174.925 430.162 175.698 430.772 176.801L440.39 193.867C441 194.97 441.144 196.258 440.821 197.398C440.533 198.575 439.78 199.605 438.703 200.23L433.212 203.467C433.069 203.54 432.925 203.614 432.781 203.687L435.401 208.358C436.047 209.462 436.155 210.749 435.868 211.926C435.581 213.066 434.827 214.133 433.751 214.758L428.26 217.995C428.116 218.068 427.972 218.142 427.829 218.215L429.767 221.636C430.413 222.739 430.521 224.027 430.233 225.167C429.946 226.27 429.264 227.263 428.26 227.889C428.224 227.925 428.152 227.962 428.08 227.999L422.589 231.236C421.512 231.898 420.256 232.008 419.108 231.714C417.959 231.419 416.955 230.647 416.345 229.544L388.531 180.185C387.885 179.082 387.777 177.794 388.064 176.617C388.351 175.514 389.033 174.521 390.038 173.896C390.074 173.859 390.146 173.822 390.218 173.785L395.709 170.549C396.785 169.887 398.041 169.776 399.154 170.07C400.302 170.365 401.307 171.137 401.917 172.24L404.178 176.286C404.322 176.176 404.465 176.102 404.609 175.992L410.1 172.755C411.177 172.093 412.433 171.983 413.581 172.277C414.729 172.572 415.734 173.344 416.345 174.447L418.605 178.493C418.785 178.53 418.893 178.42 419.036 178.346ZM390.433 207.439C391.438 206.887 392.586 206.777 393.627 207.071C394.704 207.365 395.673 208.064 396.283 209.168C396.893 210.234 397.001 211.448 396.713 212.551C396.426 213.655 395.744 214.648 394.668 215.273L376.472 226.05C375.503 226.638 373.852 227.043 372.417 226.969C371.017 226.895 369.725 226.417 369.079 225.277C368.469 224.211 368.361 222.997 368.648 221.893C368.936 220.79 369.653 219.797 370.694 219.172L390.361 207.549L390.433 207.439ZM327.053 232.78L332.544 229.544C332.688 229.47 332.832 229.396 332.975 229.323L330.714 225.277C330.678 225.204 330.642 225.167 330.606 225.093C330.068 224.027 329.96 222.813 330.248 221.709C330.535 220.569 331.288 219.503 332.365 218.877L337.856 215.641C338 215.567 338.143 215.494 338.287 215.42L336.026 211.374C335.38 210.271 335.272 208.984 335.559 207.807C335.846 206.667 336.6 205.6 337.677 204.975L343.168 201.738C344.244 201.076 345.5 200.966 346.649 201.26C347.761 201.554 348.802 202.326 349.412 203.43L377.226 252.789C377.872 253.892 377.979 255.179 377.692 256.356C377.405 257.496 376.652 258.563 375.575 259.188L370.084 262.425C370.012 262.462 369.976 262.498 369.905 262.535C368.864 263.087 367.679 263.197 366.603 262.903C365.49 262.609 364.449 261.836 363.839 260.733L361.901 257.312C361.758 257.423 361.65 257.496 361.507 257.57L356.016 260.807C355.944 260.843 355.908 260.88 355.836 260.917C354.795 261.469 353.611 261.579 352.534 261.285C351.422 260.99 350.381 260.218 349.771 259.115L347.151 254.444C347.008 254.554 346.864 254.628 346.72 254.738L341.23 257.975C340.153 258.637 338.897 258.747 337.748 258.453C336.636 258.158 335.595 257.386 334.985 256.283L325.367 239.217C324.721 238.113 324.613 236.826 324.9 235.649C325.223 234.472 325.977 233.442 327.053 232.78ZM179.766 306.487C191.502 341.87 240.562 343.194 251.58 306.487C264.571 318.441 302.972 320.868 317.256 329.033C321.778 331.608 325.869 334.918 329.135 339.332C331.324 342.311 334.267 347.828 336.492 353.97H94.8179C97.043 347.828 99.9859 342.311 102.175 339.332C105.477 334.881 109.532 331.608 114.054 329.033C128.374 320.868 166.775 318.441 179.766 306.487ZM170.758 233.148C168.282 233.258 166.452 233.773 165.16 234.656C164.442 235.171 163.904 235.796 163.545 236.569C163.15 237.415 162.97 238.444 163.006 239.621C163.114 243.079 164.873 247.603 168.282 252.825L168.318 252.899L179.407 270.995C183.858 278.24 188.523 285.633 194.337 291.076C199.9 296.299 206.683 299.83 215.619 299.867C225.309 299.904 232.415 296.226 238.157 290.709C244.151 284.971 248.852 277.1 253.518 269.266L266.007 248.154C268.34 242.711 269.201 239.07 268.663 236.9C268.34 235.612 266.976 234.987 264.643 234.877C264.141 234.84 263.638 234.84 263.136 234.877C262.562 234.877 261.987 234.913 261.377 234.987C261.054 235.024 260.731 234.987 260.408 234.913C259.296 234.987 258.147 234.913 256.963 234.73L261.234 217.112C229.472 222.261 205.678 198.06 172.086 212.257L174.491 233.332C173.235 233.369 171.943 233.332 170.758 233.148ZM268.95 229.065C272.036 230.022 274.01 232.045 274.8 235.281C275.697 238.849 274.728 243.925 271.749 250.839C271.677 250.95 271.641 251.097 271.57 251.207L258.901 272.576C254.02 280.815 249.067 289.054 242.464 295.38C235.609 301.927 227.175 306.303 215.655 306.303C204.888 306.267 196.778 302.074 190.138 295.821C183.714 289.789 178.797 282.029 174.132 274.415L163.042 256.319C158.987 250.104 156.869 244.439 156.762 239.805C156.69 237.598 157.049 235.612 157.838 233.884C158.664 232.045 159.956 230.537 161.643 229.323C162.432 228.771 163.329 228.293 164.334 227.925C163.616 218.105 163.329 207.549 163.796 197.214C164.047 194.75 164.478 192.286 165.16 189.858C167.995 179.449 175.101 174.705 183.929 168.967C188.774 165.804 194.122 163.413 199.649 161.795C203.166 160.765 196.634 149.216 200.295 148.848C217.916 147.009 246.448 163.487 258.757 177.132C264.93 183.973 268.77 189.417 269.632 201.407L268.95 229.065ZM201.874 25.4149C206.109 25.9299 210.667 24.9368 215.583 22.2151C215.117 25.9666 215.045 30.0492 215.511 34.4628C213.143 34.2789 210.738 33.764 208.37 33.0284C179.982 23.907 164.262 57.3399 178.977 83.8583C183.391 91.8027 188.703 99.9679 196.993 107.361C204.853 113.135 211.779 112.363 218.203 108.758C223.299 111.223 228.683 112.216 234.461 110.009C242.966 106.735 251.651 93.7888 255.743 85.7708C264.679 68.2636 267.694 45.8278 247.811 34.9042C242.356 31.925 235.573 31.0423 226.996 33.0284C224.95 33.764 222.905 34.2053 220.859 34.426C220.859 34.3892 220.859 34.3525 220.859 34.2789C220.141 27.5114 220.644 21.7369 222.223 16.8084C223.766 11.9903 226.35 7.98125 229.867 4.67105C230.944 3.64121 231.015 1.94934 230.01 0.845939C229.006 -0.25746 227.355 -0.33102 226.278 0.698819C222.115 4.63427 219.029 9.41566 217.198 15.1533C216.947 15.8889 216.732 16.6613 216.552 17.4337C211.241 7.76057 202.233 2.7585 187.375 5.07563L181.561 5.70089C185.76 14.8223 191 24.0541 201.874 25.4149ZM53.833 343.378C55.6633 347.534 53.833 352.425 49.7776 354.301C45.7222 356.177 40.949 354.301 39.1187 350.145C34.5967 339.81 30.9002 329.033 28.2085 317.963C25.5528 307.076 23.7583 295.784 22.9688 284.235C22.8252 282.212 22.7175 279.859 22.6099 277.21C22.5022 274.378 22.4663 272.024 22.4663 270.185C22.4663 265.625 26.0911 261.91 30.5413 261.91C34.9915 261.91 38.6162 265.625 38.6162 270.185C38.6162 272.87 38.6521 275.004 38.688 276.622C38.7598 278.461 38.8674 280.631 39.0469 283.058C39.7647 293.614 41.4155 303.949 43.856 313.917C46.3682 324.142 49.7058 333.999 53.833 343.378ZM49.9212 172.645C56.4888 165.62 61.0825 159.551 71.239 158.338C90.26 156.094 107.738 176.066 98.1555 195.706C96.3611 199.384 93.3465 203.503 89.7576 207.733V207.218H65.138L64.2407 208.174L60.293 212.331L52.1821 196.368L49.4905 191.072L46.9065 196.442L39.5493 211.705L32.2639 200.892L29.7158 197.104L27.3472 201.039L23.9378 206.703H8.97219C3.87599 199.531 0.287126 191.771 1.67489e-05 183.422C-0.538313 168.121 11.2691 158.301 24.7991 158.485C36.9295 158.595 42.0257 164.811 49.9212 172.645ZM84.8049 213.324C84.4461 213.728 84.0513 214.096 83.6924 214.501C76.9453 221.673 69.4446 228.698 64.2048 234.031L49.9212 248.559L38.1138 236.9C30.9361 229.801 21.4256 221.783 13.7095 212.735H27.2036L28.065 211.301L29.9671 208.138L37.5396 219.392L40.4107 223.622L42.6358 218.988L49.634 204.46L56.9194 218.841L58.8215 222.555L61.6568 219.539L67.5784 213.287H84.8049V213.324ZM89.5423 143.846C86.4199 147.083 81.2879 147.083 78.1297 143.883C74.9715 140.683 74.9715 135.424 78.0938 132.187C85.8457 124.243 96.0381 115.415 106.841 107.728C116.351 100.998 126.4 95.1129 135.875 91.3614C140.038 89.7063 144.703 91.8395 146.282 96.0692C147.897 100.336 145.816 105.117 141.688 106.735C133.47 110.009 124.57 115.232 115.992 121.3C106.051 128.399 96.6482 136.527 89.5423 143.846ZM284.884 107.066C280.829 105.191 278.999 100.299 280.829 96.1428C282.659 91.9866 287.432 90.1109 291.488 91.9866C306.274 98.8277 320.091 107.581 332.58 117.88C345.177 128.252 356.446 140.279 366.1 153.593C368.756 157.271 368.002 162.42 364.414 165.142C360.825 167.864 355.8 167.091 353.145 163.413C344.316 151.239 333.98 140.279 322.46 130.753C311.083 121.337 298.45 113.356 284.884 107.066ZM387.131 283.61C387.454 279.049 391.294 275.629 395.744 275.923C400.195 276.254 403.532 280.19 403.245 284.75C402.42 296.042 400.661 307.039 398.077 317.668C395.421 328.555 391.868 339.074 387.526 349.115C385.731 353.308 380.958 355.184 376.867 353.345C372.776 351.506 370.945 346.614 372.74 342.421C376.723 333.189 379.989 323.553 382.394 313.623C384.798 303.986 386.377 293.909 387.131 283.61ZM187.554 73.4128C188.595 73.045 189.743 73.6334 190.102 74.7001C191.251 78.1942 192.938 81.3204 195.055 84.1525C197.208 87.0581 199.792 89.6695 202.699 92.0602C203.561 92.7958 203.704 94.0831 202.986 94.9658C202.269 95.8485 201.012 95.9957 200.151 95.26C197.029 92.6487 194.194 89.8166 191.861 86.6535C189.492 83.4537 187.59 79.9228 186.298 75.9874C185.939 74.9207 186.513 73.7438 187.554 73.4128Z" fill="black"/>
</g>
<defs>
<clipPath id="clip0_7_8">
<rect width="441" height="355" fill="white"/>
</clipPath>
</defs>
</svg>
