<svg width="184" height="220" viewBox="0 0 184 220" fill="none" xmlns="http://www.w3.org/2000/svg">
<g clip-path="url(#clip0_7_5)">
<path d="M130.566 147.329C131.439 147.705 132.094 148.385 132.422 149.191C132.749 149.997 132.767 150.928 132.403 151.787C132.021 152.646 131.33 153.291 130.512 153.613C129.693 153.936 128.748 153.953 127.875 153.595C122.801 151.465 118.581 148.171 115.035 143.91C111.543 139.702 108.742 134.546 106.523 128.62C101.303 125.451 96.229 123.07 91.3003 121.476C86.3352 119.865 81.5156 119.023 76.8414 118.988C72.4038 118.934 68.0752 119.578 63.8376 120.921C59.7818 122.21 55.817 124.126 51.9432 126.668C54.162 128.62 56.199 130.786 58.0359 133.167C60.0001 135.71 61.7279 138.503 63.2374 141.546C63.6557 142.388 63.6921 143.319 63.4011 144.142L63.3829 144.178C63.0919 144.984 62.4917 145.682 61.6369 146.094C60.7821 146.506 59.8364 146.541 58.9998 146.255L58.9634 146.237C58.145 145.951 57.4357 145.36 57.0174 144.518C54.8349 140.114 52.1068 136.318 48.8513 133.149C45.5958 129.963 41.8129 127.384 37.5207 125.379C33.1194 123.32 28.1725 121.852 22.7163 120.939C17.242 120.026 11.2584 119.668 4.76553 119.847C3.8198 119.865 2.94681 119.507 2.29207 118.916C1.65552 118.325 1.23721 117.484 1.21903 116.535C1.20084 115.604 1.56458 114.744 2.16476 114.1C2.76494 113.473 3.61974 113.062 4.58366 113.044C11.6039 112.847 18.1149 113.241 24.0985 114.261C30.1003 115.282 35.5565 116.929 40.467 119.22C41.5219 119.704 42.5404 120.223 43.5225 120.778C44.4318 121.279 45.3048 121.799 46.1596 122.336C50.9429 118.934 55.8716 116.392 60.9458 114.691C66.111 112.954 71.4217 112.131 76.896 112.184C81.3337 112.238 85.8623 112.882 90.4637 114.136C94.774 115.299 99.139 117 103.595 119.22C103.468 118.683 103.322 118.164 103.195 117.627C102.995 116.768 102.795 115.89 102.595 114.977C100.758 106.455 99.6482 96.8945 99.0117 86.6537C98.3933 76.6276 98.2296 65.9212 98.3205 54.8747C89.8635 57.7035 81.4974 60.5143 73.0039 63.2357C70.0031 64.5606 67.2386 65.223 64.6924 65.2409C62.128 65.2767 59.7818 64.668 57.6539 63.5042C55.6352 62.4121 53.871 60.8187 52.3251 58.8135C50.7974 56.8262 49.4697 54.4271 48.3421 51.6878C45.8686 47.7669 43.3224 43.846 40.9217 39.9072C38.9757 36.7025 37.8663 33.641 37.5934 30.7048C37.3388 27.7507 37.939 24.9398 39.4122 22.2721C40.7762 19.7835 42.8859 17.5098 45.7777 15.4151C48.6331 13.3561 52.216 11.4762 56.5627 9.79331C64.6924 7.05405 73.2949 4.20737 81.4974 1.75457C84.571 0.662446 87.5537 0.071626 90.4273 1.14478e-05C93.3191 -0.0716031 96.1017 0.375988 98.7752 1.37859C101.34 2.34539 103.777 3.79558 106.068 5.76499C108.324 7.71648 110.433 10.1693 112.397 13.1413C122.837 19.694 131.858 27.8223 139.606 37.3828C147.353 46.9613 153.81 57.9541 159.12 70.2002C164.413 82.3926 168.578 95.8382 171.742 110.34C174.907 124.824 177.089 140.383 178.435 156.836C180.8 163.532 182.546 169.583 183.4 174.972C184.273 180.415 184.237 185.16 183.055 189.17C181.782 193.556 179.272 197.012 175.307 199.482C171.379 201.917 166.013 203.368 158.957 203.761C141.606 208.112 125.238 211.639 109.924 214.271C94.5922 216.921 80.3334 218.675 67.2022 219.481C53.9256 220.286 41.8129 220.107 30.9369 218.89C20.061 217.655 10.4218 215.363 2.1102 211.943C1.23721 211.585 0.582475 210.905 0.236918 210.099C-0.108639 209.294 -0.126826 208.363 0.236918 207.503C0.600662 206.644 1.29178 205.999 2.1102 205.659C2.92863 205.319 3.87436 205.301 4.74735 205.659C12.5315 208.864 21.6433 211.012 32.01 212.176C42.3767 213.322 53.9983 213.483 66.7657 212.713C79.6605 211.925 93.7192 210.189 108.887 207.557C124.037 204.943 140.278 201.434 157.52 197.101C157.556 197.101 157.574 197.083 157.611 197.083C157.702 197.065 157.775 197.048 157.865 197.03C162.721 196.314 166.268 196.636 170.851 194.076C173.761 192.446 175.543 190.173 176.38 187.29C177.326 184.067 177.271 180.039 176.453 175.277C175.616 170.496 173.998 164.982 171.815 158.841C171.742 158.68 171.688 158.501 171.633 158.322C171.597 158.143 171.56 157.964 171.542 157.767C170.233 141.546 168.105 126.257 165.013 112.041C161.921 97.8255 157.884 84.7022 152.737 72.8499C147.644 61.1052 141.461 50.5957 134.058 41.4649C126.656 32.3519 118.054 24.6354 108.087 18.4766C107.869 18.3512 107.651 18.1722 107.469 17.9932C107.287 17.8141 107.123 17.5993 106.978 17.3845L106.959 17.3486C105.359 14.8242 103.649 12.7653 101.885 11.1719C100.121 9.57846 98.266 8.43263 96.3381 7.71648C94.4649 7.01824 92.5006 6.71388 90.4091 6.78549C88.3176 6.85711 86.1169 7.3047 83.8072 8.12827C75.5502 10.8317 67.2568 13.4636 58.9998 16.1312C55.4351 17.5098 52.5251 18.9958 50.2699 20.5534C48.0329 22.111 46.4506 23.7402 45.5049 25.4411C44.6683 26.9629 44.3591 28.6279 44.5773 30.4183C44.7956 32.2445 45.5594 34.2318 46.8689 36.3623L54.3621 48.2682C54.3802 48.2861 54.3984 48.322 54.3984 48.3399L54.5257 48.5547C54.5803 48.6442 54.6167 48.7337 54.6349 48.8054L54.653 48.8412C55.5078 50.9717 56.4536 52.78 57.5266 54.2481C58.5815 55.6983 59.7273 56.7904 61.0004 57.4886C62.1644 58.1152 63.4738 58.4196 64.9834 58.348C66.5293 58.2764 68.2571 57.8288 70.2213 56.9694C70.2941 56.9336 70.385 56.8978 70.4759 56.862C70.5669 56.8262 70.6578 56.7904 70.7487 56.7546L73.8951 55.752C74.7135 52.4398 75.4956 49.7184 76.1321 47.5163L76.1503 47.4805C76.6778 45.6543 77.1506 44.3652 77.4598 43.5238C77.6599 42.9688 77.9145 42.8971 77.8417 42.7897C77.7872 42.7181 77.5871 43.0762 76.9506 43.5059C75.7684 44.3294 73.786 45.6901 70.3668 47.0508L68.7663 47.6774C67.8752 48.0355 66.9294 47.9818 66.1292 47.6416C65.3108 47.3014 64.6378 46.6569 64.2741 45.7796C63.9285 44.9024 63.9649 43.9893 64.3105 43.1836C64.656 42.3779 65.3108 41.7155 66.2019 41.3574C66.7294 41.1426 67.275 40.9457 67.8024 40.7308C77.1324 37.0248 81.1518 35.4492 83.5707 38.9942C85.1166 41.25 84.2618 44.1862 82.7887 49.3246L82.7705 49.3962C82.4431 50.5241 82.0794 51.7953 81.6974 53.1917L100.721 46.818L100.794 46.8001C100.958 46.7464 101.121 46.7106 101.285 46.6927C101.467 46.6569 101.667 46.6569 101.867 46.6569C102.813 46.6748 103.686 47.0508 104.304 47.6774C104.923 48.304 105.304 49.1455 105.286 50.0944C105.123 61.9287 105.213 73.405 105.795 84.1292C106.377 94.8356 107.487 104.772 109.36 113.527C111.161 121.924 113.671 129.193 117.144 134.958C120.582 140.741 124.983 144.966 130.566 147.329Z" fill="black"/>
</g>
<defs>
<clipPath id="clip0_7_5">
<rect width="184" height="220" fill="white"/>
</clipPath>
</defs>
</svg>
